<svg viewBox="0 0 96 96" version="1.1" xmlns="http://www.w3.org/2000/svg" xmlns:xlink="http://www.w3.org/1999/xlink">
    <title>breakfast</title>
    <g id="keyword-web" stroke-width="1" stroke="#101820" fill="none" fill-rule="evenodd">
        <g id="Keyword-Icons" transform="translate(-122.000000, -600.000000)"></g>
        <g id="breakfast" stroke-width="2">
            <g id="Page-1" transform="translate(17.349365, 16.377984)">
                <path d="M28.5098006,21.6823382 L26.7763829,19.951124 C25.2530319,18.426304 25.2530319,15.9547147 26.7763829,14.4298947 L30.7375362,10.4680069 C33.1635865,8.04269104 33.1635865,4.10871418 30.7375362,1.68339835 L29.5740897,0.519217372" id="Stroke-1"></path>
                <path d="M22.9276079,22.7468477 L21.7634269,21.5826667 C19.3373766,19.1573509 19.3373766,15.223374 21.7634269,12.7958547 L25.7245802,8.83617036 C27.2479313,7.31355385 27.2479313,4.83976108 25.7245802,3.31641007 L23.991897,1.58372683" id="Stroke-3"></path>
                <path d="M25.3698907,46.3430701 L5.92549756,46.3430701 L9.38351904,49.9582743 C9.57595779,50.1609961 9.84184644,50.2733744 10.1202216,50.2733744 L24.8476618,50.2733744" id="Stroke-5" stroke-linejoin="bevel"></path>
                <path d="M40.5789419,35.3858134 C42.3483501,32.2157155 43.1878825,29.0287242 43.1878825,26.5461174 L12.4417527,26.5461174" id="Stroke-7" stroke-linecap="square"></path>
                <path d="M6.86044139,26.5463378 C6.86044139,31.2889981 9.92330239,38.6060775 16.6873041,43.4552402 C17.480563,44.0222734 17.9197934,44.9653702 17.9197934,45.9415194 L17.9197934,46.3432904 L23.3139544,46.3432904" id="Stroke-9" stroke-linecap="square"></path>
                <path d="M6.86044139,26.5463378 L3.82916385,26.5463378 C1.71454111,26.5463378 0.000220349712,28.2606585 0.000220349712,30.3752813 C0.000220349712,32.489904 1.71454111,34.2027558 3.82916385,34.2027558 L4.99554832,34.2027558" id="Stroke-11"></path>
                <path d="M53.3608411,39.7873723 C60.2776186,40.7664595 62.9982031,43.7903921 62.265173,44.9905635 C61.6952018,45.9241118 59.6841434,45.9645093 57.7244999,45.6574887" id="Stroke-13"></path>
                <path d="M27.9988096,47.2233672 C33.1403029,42.8626464 56.813207,45.9064104 47.3521248,53.5363864" id="Stroke-15"></path>
                <path d="M44.2249217,38.7165462 C49.2848856,36.8523876 53.3216923,39.2784379 55.4076696,41.4848731 C57.030178,43.2013973 58.5880505,45.3578865 57.2409792,46.4427416 C55.6346298,47.0854282 54.361743,47.7479464 53.0051233,47.9110052" id="Stroke-17"></path>
                <path d="M49.7583437,50.6204252 C51.1149634,50.4581009 51.5027789,49.5098627 52.971777,48.2333033 C53.0305369,44.3801214 46.1299184,36.8889657 38.6982571,38.1736045 C34.1355491,38.963191 30.5754323,40.9661698 27.9988096,47.2233672 C27.9988096,47.2233672 21.9303786,66.3188732 55.634336,61.913348 C57.7416138,61.6379108 56.2234043,58.2408528 51.2273418,57.9654156" id="Stroke-19"></path>
                <path d="M38.2119453,61.7582952 C39.4547177,56.0416892 43.2153528,53.5017915 47.6150021,53.3049458 C50.8600188,56.1290946 52.604454,56.8635936 50.2775611,62.4428483" id="Stroke-21"></path>
            </g>
        </g>
    </g>
</svg>
