<svg viewBox="0 0 96 96" version="1.1" xmlns="http://www.w3.org/2000/svg" xmlns:xlink="http://www.w3.org/1999/xlink">
    <title>kids</title>
    <g id="keyword-web" stroke="#101820" stroke-width="1" fill="none" fill-rule="evenodd">
        <g id="Keyword-Icons" transform="translate(-464.000000, -996.000000)"></g>
        <g id="kids" stroke-width="2">
            <g id="Page-1" transform="translate(19.000000, 22.000000)">
                <path d="M20.3819,46.3525 C20.3819,49.3295 17.9679,51.7435 14.9909,51.7435 C12.0129,51.7435 9.5989,49.3295 9.5989,46.3525 C9.5989,43.3735 12.0129,40.9605 14.9909,40.9605 C17.9679,40.9605 20.3819,43.3735 20.3819,46.3525 Z" id="Stroke-1"></path>
                <path d="M57.0029,46.3525 C57.0029,49.3295 54.5889,51.7435 51.6119,51.7435 C48.6339,51.7435 46.2199,49.3295 46.2199,46.3525 C46.2199,43.3735 48.6339,40.9605 51.6119,40.9605 C54.5889,40.9605 57.0029,43.3735 57.0029,46.3525 Z" id="Stroke-3"></path>
                <path d="M21.8154,12.4287 C24.3744,9.8697 28.5224,9.8697 31.0814,12.4287 C33.6394,14.9877 33.6394,19.1367 31.0814,21.6957" id="Stroke-5"></path>
                <path d="M43.5186,34.2128 C44.5506,35.2448 46.2256,35.2448 47.2586,34.2128 C48.2916,33.1808 48.2916,31.5068 47.2586,30.4748 L43.2936,26.5108 C42.7786,25.9938 42.1016,25.7358 41.4236,25.7358 L35.3836,25.7358" id="Stroke-7"></path>
                <path d="M14.9911,40.9609 L14.9911,10.5099" id="Stroke-9"></path>
                <path d="M1.9189,11.1855 C-0.6401,8.6265 -0.6401,4.4775 1.9189,1.9185 C4.4799,-0.6395 8.6279,-0.6395 11.1869,1.9185 L50.2259,40.9605" id="Stroke-11"></path>
                <path d="M38.3799,35.9287 L14.9909,35.9287" id="Stroke-13"></path>
            </g>
        </g>
    </g>
</svg>
