<svg viewBox="0 0 96 96" version="1.1" xmlns="http://www.w3.org/2000/svg" xmlns:xlink="http://www.w3.org/1999/xlink">
    <title>lively-scenes</title>
    <g id="keyword-web" stroke="#101820" stroke-width="1" fill="none" fill-rule="evenodd">
        <g id="Keyword-Icons" transform="translate(-794.000000, -1003.000000)"></g>
        <g id="lively-scenes-copy" stroke-width="2">
            <g id="Page-1" transform="translate(24.000000, 20.000000)">
                <path d="M20.2320833,29.270163 L25.5320833,33.3166815" id="Stroke-1" stroke-linecap="round"></path>
                <polyline id="Stroke-2" points="3.30770833 42.4794222 8.54208333 46.450237 15.78375 37.0007556 10.2504167 32.7966074"></polyline>
                <path d="M30.509375,16.1387852 L33.4104167,18.3424889" id="Stroke-3"></path>
                <g id="Group-20" transform="translate(0.000000, 0.985185)">
                    <path d="M24.7040625,37.9395852 C26.2748958,29.3840296 28.6103125,25.1259556 30.7561458,21.247437 C30.9228125,20.9477333 32.7176042,18.5044741 33.4113542,17.3575111 L30.5092708,15.1538074 C29.5978125,16.1348444 27.7186458,18.5138074 27.4717708,18.7523259 C24.2811458,21.8375111 20.5540625,24.7495111 12.8978125,28.9712889 C9.26447917,30.9748444 2.8321875,41.2684741 0.336354167,45.0858074 C-0.303229167,46.0647704 -0.0053125,47.4232889 1.01447917,48.1979556 L4.63114583,50.9450667 L5.5978125,51.6803259 L9.21447917,54.427437 C10.2342708,55.2021037 11.6290625,55.1295111 12.4082292,54.2563259 C15.4478125,50.8517333 24.0832292,41.3224 24.7040625,37.9395852 Z" id="Stroke-4"></path>
                    <polygon id="Stroke-6" points="38.3573958 10.6831407 36.0105208 8.83617778 39.8834375 1.74180741 44.1511458 4.95973333"></polygon>
                    <path d="M31.6696875,8.34814815 L28.8051042,0.0518518519" id="Stroke-8" stroke-linecap="round"></path>
                    <path d="M28.0604167,11.8395407 L22.4083333,11.8395407" id="Stroke-10" stroke-linecap="round"></path>
                    <path d="M37.9844792,19.0019407 L40.4126042,23.8967556" id="Stroke-12" stroke-linecap="round"></path>
                    <path d="M39.751875,14.8588741 L49.083125,13.6662815" id="Stroke-14" stroke-linecap="round"></path>
                    <path d="M25.2291667,4.83954074 C25.2291667,5.10191111 25.015625,5.3145037 24.7520833,5.3145037 C24.4885417,5.3145037 24.2739583,5.10191111 24.2739583,4.83954074 C24.2739583,4.57717037 24.4885417,4.36457778 24.7520833,4.36457778 C25.015625,4.36457778 25.2291667,4.57717037 25.2291667,4.83954074 Z" id="Stroke-16"></path>
                    <path d="M36.0321875,25.999763 C36.0321875,26.2621333 35.8186458,26.4747259 35.5551042,26.4747259 C35.2915625,26.4747259 35.0769792,26.2621333 35.0769792,25.999763 C35.0769792,25.7373926 35.2915625,25.5248 35.5551042,25.5248 C35.8186458,25.5248 36.0321875,25.7373926 36.0321875,25.999763 Z" id="Stroke-18"></path>
                </g>
            </g>
        </g>
    </g>
</svg>
