<svg viewBox="0 0 96 96" version="1.1" xmlns="http://www.w3.org/2000/svg" xmlns:xlink="http://www.w3.org/1999/xlink">
    <title>lunch</title>
    <g id="keyword-web" stroke="#101820" stroke-width="1" fill="none" fill-rule="evenodd">
        <g id="Keyword-Icons" transform="translate(-1134.000000, -1000.000000)"></g>
        <g id="lunch" stroke-width="2">
            <g id="Page-1" transform="translate(23.000000, 21.000000)">
                <path d="M2.3248,25.6823 C1.5348,25.6823 0.9178,25.1373 1.0088,24.5213 C2.0488,17.3693 12.6948,13.4303 24.1988,13.4303 C35.7238,13.4303 46.3878,17.1493 47.3948,24.5253 C47.4798,25.1383 46.8658,25.6823 46.0778,25.6823 L2.3248,25.6823 Z" id="Stroke-1" stroke-linecap="square"></path>
                <path d="M2.1452,42.1927 L2.1452,43.6707 C2.1452,45.9927 3.5642,47.8747 5.3152,47.8747 L44.2902,47.8747 C46.0402,47.8747 47.4582,45.9927 47.4582,43.6707 L47.4582,42.1927 L2.1452,42.1927 Z" id="Stroke-3"></path>
                <path d="M46.2765,34.8513 L46.3355,34.8513 C46.3355,37.1583 44.8695,38.1923 43.0625,38.1923 L5.4205,38.1923 C3.6115,38.1923 2.1455,37.1583 2.1455,34.8513" id="Stroke-5" stroke-linecap="square"></path>
                <path d="M10.9786,15.4817 L15.0516,19.5567" id="Stroke-7"></path>
                <path d="M20.137,13.9945 L24.504,18.3625" id="Stroke-9"></path>
                <path d="M30.8135,14.0239 L37.4255,20.6369" id="Stroke-11"></path>
                <path d="M24.1316,13.4305 L24.1316,8.2435" id="Stroke-13"></path>
                <path d="M24.1316,3.9254 L24.1316,0.0004" id="Stroke-15"></path>
                <path d="M26.7087,6.5026 C26.7087,7.9256 25.5547,9.0796 24.1317,9.0796 C22.7077,9.0796 21.5547,7.9256 21.5547,6.5026 C21.5547,5.0796 22.7077,3.9256 24.1317,3.9256 C25.5547,3.9256 26.7087,5.0796 26.7087,6.5026 Z" id="Stroke-17"></path>
                <path d="M0.1683,29.4764 L1.8313,29.4764 C3.7583,29.4764 4.8063,30.5164 5.9143,31.1254 C7.0203,31.7344 8.5593,31.7294 9.7753,31.1254 L11.3163,30.3614 C12.4393,29.8024 13.7573,29.8024 14.8803,30.3614 L16.4193,31.1234 C17.0283,31.4254 17.6903,31.5774 18.3523,31.5774 C19.0133,31.5774 19.6763,31.4254 20.2853,31.1234 L21.8233,30.3614 C22.9463,29.8024 24.2653,29.8024 25.3883,30.3614 L26.9283,31.1254 C28.1463,31.7294 29.6843,31.7344 30.7903,31.1254 C31.8973,30.5164 32.9473,29.4764 34.8723,29.4764 L36.5373,29.4764 L34.8853,29.4764 L36.5493,29.4764 C38.4753,29.4764 39.5233,30.5164 40.6323,31.1254 C41.7383,31.7344 43.2763,31.7294 44.4923,31.1254 L46.0333,30.3614 C47.1563,29.8024 48.4743,29.8024 49.5973,30.3614" id="Stroke-19"></path>
            </g>
        </g>
    </g>
</svg>
