<svg viewBox="0 0 96 96" version="1.1" xmlns="http://www.w3.org/2000/svg" xmlns:xlink="http://www.w3.org/1999/xlink">
    <title>people-watching</title>
    <g id="keyword-web" stroke="#101820" stroke-width="1" fill="none" fill-rule="evenodd">
        <g id="Keyword-Icons" transform="translate(-1748.000000, -1000.000000)"></g>
        <g id="people-watching" stroke-width="2">
            <g id="People-Watching" transform="translate(15.000000, 36.000000)">
                <path d="M43.6023,20.3131 C47.2693,23.1771 52.0083,25.0791 56.8083,24.6431 C59.1933,24.4261 61.0693,23.4171 62.4973,21.9031 C63.4783,20.8631 64.2483,19.5841 64.8273,18.1611 C65.7903,15.7931 66.2253,13.0231 66.2253,10.2801 C66.2253,6.0661 65.2853,3.0081 61.5243,0.9631 C59.5323,-0.1199 43.3133,-0.7159 39.9883,1.5451 C37.5583,3.1971 36.3913,6.0301 36.7733,9.7931 C37.0083,12.1111 38.2423,14.6491 40.1493,16.9641" id="Stroke-1"></path>
                <path d="M1.3978,18.1608 C0.4348,15.7928 -0.0002,13.0228 -0.0002,10.2798 C-0.0002,6.0658 0.9388,3.0078 4.7008,0.9628 C6.6928,-0.1202 22.9118,-0.7152 26.2368,1.5448 C28.6668,3.1968 29.8338,6.0298 29.4518,9.7938 C28.7528,16.6878 19.2128,25.5318 9.4168,24.6428 C7.0308,24.4268 5.1558,23.4178 3.7278,21.9028" id="Stroke-3"></path>
                <path d="M6.2773,14.7455 L15.8193,5.2035" id="Stroke-5" stroke-linecap="round"></path>
                <path d="M10.319,16.7872 L19.861,7.2452" id="Stroke-7" stroke-linecap="round"></path>
                <path d="M44.0273,14.7455 L53.5693,5.2035" id="Stroke-9" stroke-linecap="round"></path>
                <path d="M48.069,16.7872 L57.611,7.2452" id="Stroke-11" stroke-linecap="round"></path>
                <path d="M13.444,-3.55271368e-15 L47.682,-3.55271368e-15" id="Stroke-13" stroke-linecap="round"></path>
                <path d="M29.5228,8.2038 C29.5228,6.3858 31.1298,4.9118 33.1128,4.9118 C35.0948,4.9118 36.7018,6.3858 36.7018,8.2038" id="Stroke-15" stroke-linecap="round"></path>
            </g>
        </g>
    </g>
</svg>
