<svg viewBox="0 0 96 96" version="1.1" xmlns="http://www.w3.org/2000/svg" xmlns:xlink="http://www.w3.org/1999/xlink">
    <title>quick-bites</title>
    <defs>
        <polyline id="path-1" points="0 0.05618 44.08964 0.05618 44.08964 53 0 53"></polyline>
        <polygon id="path-3" points="0 0.05618 44.08964 0.05618 44.08964 53 0 53"></polygon>
        <polygon id="path-5" points="0 54.449314 44.5673077 54.449314 44.5673077 0 0 0"></polygon>
    </defs>
    <g id="keyword-web" stroke="#101820" stroke-width="1" fill="none" fill-rule="evenodd">
        <g id="Keyword-Icons" transform="translate(-780.000000, -1428.000000)"></g>
        <g id="quick-bites">
            <g id="Page-1" transform="translate(26.000000, 22.000000)" stroke="none">
                <polygon id="Fill-1" fill="#FFFFFF" points="29.628272 34.457208 20.403092 34.457208 20.403092 21.266568 22.523092 21.266568 22.523092 32.337208 29.628272 32.337208"></polygon>
                <g id="Group-9">
                    <path d="M22.044714,13.932216 C12.657354,13.932216 5.020054,21.568456 5.020054,30.955816 C5.020054,39.561956 11.444714,46.677736 19.746634,47.805576 L19.746634,45.663316 C12.618134,44.552436 7.140054,38.389596 7.140054,30.955816 C7.140054,22.737636 13.826534,16.052216 22.044714,16.052216 C30.261834,16.052216 36.947254,22.737636 36.947254,30.955816 C36.947254,38.389596 31.470234,44.552436 24.342794,45.663316 L24.342794,47.805576 C32.643654,46.677736 39.067254,39.560896 39.067254,30.955816 C39.067254,21.568456 31.431014,13.932216 22.044714,13.932216" id="Fill-2" fill="#FFFFFF"></path>
                    <g id="Group-6">
                        <mask id="mask-2" fill="white">
                            <use xlink:href="#path-1"></use>
                        </mask>
                        <g id="Clip-5"></g>
                        <path d="M24.342688,9.033956 L24.342688,11.176216 C34.249448,12.321016 41.969428,20.748016 41.969428,30.955816 C41.969428,41.941656 33.031508,50.879576 22.044608,50.879576 C11.057708,50.879576 2.119788,41.941656 2.119788,30.955816 C2.119788,20.748016 9.839768,12.321016 19.746528,11.176216 L19.746528,9.033956 C8.667408,10.187236 -0.000212,19.576716 -0.000212,30.955816 C-0.000212,43.110836 9.889588,52.999576 22.044608,52.999576 C34.199628,52.999576 44.089428,43.110836 44.089428,30.955816 C44.089428,19.576716 35.421808,10.187236 24.342688,9.033956" id="Fill-4" fill="#FFFFFF" mask="url(#mask-2)"></path>
                    </g>
                    <mask id="mask-4" fill="white">
                        <use xlink:href="#path-3"></use>
                    </mask>
                    <g id="Clip-8"></g>
                    <path d="M14.2517,5.49186 L29.83688,5.49186 L29.83688,2.17618 L14.2517,2.17618 L14.2517,5.49186 Z M31.95688,7.61186 L12.1317,7.61186 L12.1317,0.05618 L31.95688,0.05618 L31.95688,7.61186 Z" id="Fill-7" fill="#FFFFFF" mask="url(#mask-4)"></path>
                </g>
            </g>
            <g id="Page-1" transform="translate(26.000000, 21.000000)">
                <path d="M38.3653846,32.3694741 C38.3653846,41.1693979 31.1653846,48.3046875 22.2830769,48.3046875 C13.4019231,48.3046875 6.20192308,41.1693979 6.20192308,32.3694741 C6.20192308,23.5695503 13.4019231,16.4342607 22.2830769,16.4342607 C31.1653846,16.4342607 38.3653846,23.5695503 38.3653846,32.3694741 Z" id="Stroke-1" stroke-width="2" stroke-linejoin="bevel"></path>
                <mask id="mask-6" fill="white">
                    <use xlink:href="#path-5"></use>
                </mask>
                <g id="Clip-4"></g>
                <polygon id="Stroke-3" stroke-width="2" stroke-linecap="square" mask="url(#mask-6)" points="13.5576923 6.8597561 31.0096154 6.8597561 31.0096154 1.14329268 13.5576923 1.14329268"></polygon>
                <polyline id="Stroke-5" stroke-width="2" mask="url(#mask-6)" points="29.0865 34.4416921 21.8034231 34.4416921 21.8034231 21.5796494"></polyline>
                <path d="M24.444,11.540968 C35.0986154,12.6133765 43.4132308,21.5287729 43.4132308,32.3694741 C43.4132308,43.9327363 33.9528462,53.3054497 22.284,53.3054497 C10.614,53.3054497 1.15361538,43.9327363 1.15361538,32.3694741 C1.15361538,21.6671113 9.25823077,12.8397485 19.719,11.5855564" id="Stroke-6" stroke-width="2" stroke-linejoin="bevel" mask="url(#mask-6)"></path>
            </g>
        </g>
    </g>
</svg>
