<svg viewBox="0 0 96 96" version="1.1" xmlns="http://www.w3.org/2000/svg" xmlns:xlink="http://www.w3.org/1999/xlink">
    <title>takeout</title>
    <g id="keyword-web" stroke="#101820" stroke-width="1" fill="none" fill-rule="evenodd">
        <g id="Keyword-Icons" transform="translate(-1983.000000, -1429.000000)"></g>
        <g id="takeout" stroke-width="2">
            <g id="Page-1" transform="translate(20.000000, 27.000000)">
                <polyline id="Stroke-1" stroke-linejoin="round" points="25.09133 28.0094538 12.06403 34.246659 9.97293 28.6754026 12.08933 27.6897103"></polyline>
                <g id="Group-14" transform="translate(0.000000, 0.091428)">
                    <path d="M28.70637,27.0774308 C28.70637,28.1336872 27.85167,28.9903795 26.79787,28.9903795 C25.74407,28.9903795 24.88937,28.1336872 24.88937,27.0774308 C24.88937,26.0211744 25.74407,25.1644821 26.79787,25.1644821 C27.85167,25.1644821 28.70637,26.0211744 28.70637,27.0774308 Z" id="Stroke-2" stroke-linejoin="round"></path>
                    <polyline id="Stroke-4" points="15.38262 28.1938872 13.18922 14.4901179 41.40312 14.4901179 37.21322 41.8976564 17.57602 41.8976564 16.63772 36.0353231"></polyline>
                    <polyline id="Stroke-6" stroke-linejoin="round" points="41.4029 14.3018 41.4029 8.68864615 33.8547 0.0114666667 20.0178 0.0114666667 13.1901 8.68864615 13.222 14.3018"></polyline>
                    <path d="M23.44276,3.8674641 L30.45086,3.8674641" id="Stroke-8" stroke-linecap="round" stroke-linejoin="round"></path>
                    <path d="M13.18977,14.4903385 L0.58597,6.5463641" id="Stroke-10"></path>
                    <path d="M41.4029,14.4903385 L54.0067,6.5463641" id="Stroke-12"></path>
                </g>
            </g>
        </g>
    </g>
</svg>
